<?xml version="1.0" encoding="UTF-8" standalone="no"?>
<!-- Created with Inkscape (http://www.inkscape.org/) -->

<svg
   xmlns:dc="http://purl.org/dc/elements/1.1/"
   xmlns:cc="http://creativecommons.org/ns#"
   xmlns:rdf="http://www.w3.org/1999/02/22-rdf-syntax-ns#"
   xmlns:svg="http://www.w3.org/2000/svg"
   xmlns="http://www.w3.org/2000/svg"
   xmlns:sodipodi="http://sodipodi.sourceforge.net/DTD/sodipodi-0.dtd"
   xmlns:inkscape="http://www.inkscape.org/namespaces/inkscape"
   width="210mm"
   height="297mm"
   viewBox="0 0 210 297"
   version="1.1"
   id="svg8"
   inkscape:version="0.92.1 r15371"
   sodipodi:docname="OptUAVonedimensional2.svg"
   enable-background="new">
  <sodipodi:namedview
     id="base"
     pagecolor="#ffffff"
     bordercolor="#666666"
     borderopacity="1.0"
     inkscape:pageopacity="0.0"
     inkscape:pageshadow="2"
     inkscape:zoom="5.6"
     inkscape:cx="306.18705"
     inkscape:cy="626.32693"
     inkscape:document-units="mm"
     inkscape:current-layer="layer1"
     showgrid="false"
     inkscape:window-width="2560"
     inkscape:window-height="1380"
     inkscape:window-x="0"
     inkscape:window-y="31"
     inkscape:window-maximized="1" />
  <defs
     id="defs2">
    <marker
       inkscape:stockid="Arrow1Mstart"
       orient="auto"
       refY="0.0"
       refX="0.0"
       id="Arrow1Mstart"
       style="overflow:visible"
       inkscape:isstock="true">
      <path
         id="path5467"
         d="M 0.0,0.0 L 5.0,-5.0 L -12.5,0.0 L 5.0,5.0 L 0.0,0.0 z "
         style="fill-rule:evenodd;stroke:#000000;stroke-width:1pt;stroke-opacity:1;fill:#000000;fill-opacity:1"
         transform="scale(0.4) translate(10,0)" />
    </marker>
    <marker
       inkscape:stockid="Arrow2Mend"
       orient="auto"
       refY="0.0"
       refX="0.0"
       id="marker2430"
       style="overflow:visible;"
       inkscape:isstock="true">
      <path
         id="path2428"
         style="fill-rule:evenodd;stroke-width:0.625;stroke-linejoin:round;stroke:#000000;stroke-opacity:1;fill:#000000;fill-opacity:1"
         d="M 8.7185878,4.0337352 L -2.2072895,0.016013256 L 8.7185884,-4.0017078 C 6.9730900,-1.6296469 6.9831476,1.6157441 8.7185878,4.0337352 z "
         transform="scale(0.6) rotate(180) translate(0,0)" />
    </marker>
    <marker
       inkscape:stockid="Arrow1Lstart"
       orient="auto"
       refY="0.0"
       refX="0.0"
       id="Arrow1Lstart"
       style="overflow:visible"
       inkscape:isstock="true">
      <path
         id="path982"
         d="M 0.0,0.0 L 5.0,-5.0 L -12.5,0.0 L 5.0,5.0 L 0.0,0.0 z "
         style="fill-rule:evenodd;stroke:#000000;stroke-width:1pt;stroke-opacity:1;fill:#000000;fill-opacity:1"
         transform="scale(0.8) translate(12.5,0)" />
    </marker>
    <marker
       inkscape:isstock="true"
       style="overflow:visible;"
       id="marker950"
       refX="0.0"
       refY="0.0"
       orient="auto"
       inkscape:stockid="Arrow2Mend">
      <path
         transform="scale(0.6) rotate(180) translate(0,0)"
         d="M 8.7185878,4.0337352 L -2.2072895,0.016013256 L 8.7185884,-4.0017078 C 6.9730900,-1.6296469 6.9831476,1.6157441 8.7185878,4.0337352 z "
         style="fill-rule:evenodd;stroke-width:0.625;stroke-linejoin:round;stroke:#000000;stroke-opacity:1;fill:#000000;fill-opacity:1"
         id="path948" />
    </marker>
    <marker
       inkscape:stockid="Arrow1Lend"
       orient="auto"
       refY="0.0"
       refX="0.0"
       id="Arrow1Lend"
       style="overflow:visible;"
       inkscape:isstock="true">
      <path
         id="path78909"
         d="M 0.0,0.0 L 5.0,-5.0 L -12.5,0.0 L 5.0,5.0 L 0.0,0.0 z "
         style="fill-rule:evenodd;stroke:#000000;stroke-width:1pt;stroke-opacity:1;fill:#000000;fill-opacity:1"
         transform="scale(0.8) rotate(180) translate(12.5,0)" />
    </marker>
    <inkscape:path-effect
       effect="spiro"
       id="path-effect78872"
       is_visible="true" />
    <inkscape:path-effect
       effect="spiro"
       id="path-effect78868"
       is_visible="true" />
    <inkscape:path-effect
       effect="spiro"
       id="path-effect78846"
       is_visible="true" />
    <inkscape:path-effect
       effect="spiro"
       id="path-effect78846-5"
       is_visible="true" />
    <inkscape:path-effect
       effect="spiro"
       id="path-effect78868-5"
       is_visible="true" />
  </defs>
  <metadata
     id="metadata5">
    <rdf:RDF>
      <cc:Work
         rdf:about="">
        <dc:format>image/svg+xml</dc:format>
        <dc:type
           rdf:resource="http://purl.org/dc/dcmitype/StillImage" />
        <dc:title></dc:title>
      </cc:Work>
    </rdf:RDF>
  </metadata>
  <g
     inkscape:groupmode="layer"
     id="layer3"
     inkscape:label="new">
    <ellipse
       style="fill:#000000;stroke:#000000;stroke-width:0.26499996;stroke-miterlimit:4;stroke-dasharray:none;stroke-dashoffset:0"
       id="path78842-1-4"
       cx="-46.131668"
       cy="-142.21754"
       rx="0.322"
       ry="0.31434214"
       transform="scale(-1)" />
  </g>
  <g
     id="layer1"
     inkscape:groupmode="layer"
     inkscape:label="Layer 1">
    <text
       xml:space="preserve"
       style="font-style:normal;font-weight:normal;font-size:5.64444447px;line-height:1.25;font-family:sans-serif;letter-spacing:0px;word-spacing:0px;fill:#000000;fill-opacity:1;stroke:none;stroke-width:0.26458332"
       x="85.135872"
       y="118.22939"
       id="text78816"><tspan
         sodipodi:role="line"
         x="85.135872"
         y="118.22939"
         style="font-style:normal;font-variant:normal;font-weight:normal;font-stretch:normal;font-size:3.52777767px;font-family:sans-serif;-inkscape-font-specification:'sans-serif, Normal';font-variant-ligatures:normal;font-variant-caps:normal;font-variant-numeric:normal;font-feature-settings:normal;text-align:start;writing-mode:lr-tb;text-anchor:start;stroke-width:0.26458332"
         id="tspan78818">$\hq^{(2)}_2$</tspan></text>
    <text
       xml:space="preserve"
       style="font-style:normal;font-variant:normal;font-weight:normal;font-stretch:normal;font-size:3.52777767px;line-height:1.25;font-family:sans-serif;-inkscape-font-specification:'sans-serif, Normal';font-variant-ligatures:normal;font-variant-caps:normal;font-variant-numeric:normal;font-feature-settings:normal;text-align:start;letter-spacing:0px;word-spacing:0px;writing-mode:lr-tb;text-anchor:start;fill:#000000;fill-opacity:1;stroke:none;stroke-width:0.26458332"
       x="97.550735"
       y="149.57744"
       id="text78884-9"><tspan
         sodipodi:role="line"
         id="tspan78882-3"
         x="97.550735"
         y="152.6987"
         style="font-style:normal;font-variant:normal;font-weight:normal;font-stretch:normal;font-size:3.52777767px;font-family:sans-serif;-inkscape-font-specification:'sans-serif, Normal';font-variant-ligatures:normal;font-variant-caps:normal;font-variant-numeric:normal;font-feature-settings:normal;text-align:start;writing-mode:lr-tb;text-anchor:start;stroke-width:0.26458332" /></text>
    <path
       style="fill:#000000;stroke-width:1"
       d="m 44.066714,124.30912 c -0.04402,-6.8e-4 -0.115551,-0.0221 -0.15896,-0.0473 -0.04456,-0.026 -0.07874,-0.099 -0.0785,-0.16776 2.38e-4,-0.067 0.05918,-0.22326 0.130997,-0.34728 0.07182,-0.12403 0.207515,-0.31455 0.301553,-0.42338 0.09404,-0.10884 0.279852,-0.26753 0.412919,-0.35265 0.133066,-0.0851 0.234078,-0.17873 0.224471,-0.20802 -0.0096,-0.0293 -0.08562,-0.0994 -0.168913,-0.15585 -0.143342,-0.0971 -0.187791,-0.10194 -0.830872,-0.0902 l -0.679427,0.0124 -0.02255,0.20295 -0.02255,0.20295 h -0.270599 -0.2706 l -0.01242,-0.73973 c -0.01165,-0.69342 -0.0067,-0.74505 0.07892,-0.82483 0.05024,-0.0468 0.09135,-0.10594 0.09135,-0.13141 0,-0.0255 -0.02101,-0.0856 -0.04669,-0.13354 -0.0421,-0.0787 -0.09886,-0.0872 -0.577279,-0.0872 -0.352549,0 -0.548752,-0.0182 -0.584712,-0.0541 -0.02977,-0.0298 -0.05412,-0.0983 -0.05412,-0.15233 0,-0.054 0.02663,-0.12031 0.05918,-0.14732 0.03322,-0.0276 0.295147,-0.0547 0.597053,-0.0619 l 0.537869,-0.0128 0.0606,-0.12662 c 0.03648,-0.0762 0.08975,-0.12101 0.133844,-0.11251 0.04028,0.008 0.08516,0.0647 0.09973,0.12661 l 0.02649,0.11252 0.558918,0.0127 c 0.317616,0.007 0.584494,0.034 0.61816,0.0619 0.03258,0.027 0.05924,0.0934 0.05924,0.14737 0,0.054 -0.02435,0.12256 -0.05412,0.15233 -0.03566,0.0357 -0.226684,0.0541 -0.56006,0.0541 -0.278267,0 -0.538043,0.0123 -0.577279,0.0274 -0.04102,0.0157 -0.07134,0.0799 -0.07134,0.15086 0,0.0679 0.03961,0.15933 0.08802,0.20314 0.06082,0.055 0.09218,0.15127 0.101475,0.31142 l 0.01346,0.23176 0.696098,0.0125 c 0.663632,0.0119 0.706824,0.007 0.92606,-0.10002 0.126481,-0.0619 0.34842,-0.20449 0.493202,-0.31691 l 0.263237,-0.20441 h 0.575123 0.575125 l 0.278161,0.22235 c 0.152989,0.1223 0.366026,0.26489 0.473415,0.31688 0.177164,0.0858 0.261601,0.0934 0.911459,0.0821 l 0.716207,-0.0124 0.02338,-0.26296 c 0.01647,-0.18525 0.04646,-0.27588 0.101474,-0.30667 0.04295,-0.024 0.07809,-0.0894 0.07809,-0.14519 0,-0.0558 -0.02435,-0.12584 -0.05412,-0.1556 -0.03587,-0.0359 -0.230513,-0.0541 -0.577281,-0.0541 -0.346767,0 -0.541406,-0.0182 -0.577279,-0.0541 -0.02976,-0.0298 -0.05412,-0.0983 -0.05412,-0.15233 0,-0.054 0.02666,-0.12033 0.05924,-0.14738 0.03367,-0.0279 0.300545,-0.0547 0.618161,-0.0619 l 0.55892,-0.0127 0.02649,-0.11251 c 0.01457,-0.0619 0.06162,-0.11928 0.104557,-0.12755 0.05317,-0.0102 0.09335,0.0288 0.125999,0.12247 l 0.04793,0.13751 0.566243,0.0126 c 0.467961,0.0104 0.57437,0.0255 0.613067,0.087 0.03459,0.0549 0.02673,0.10503 -0.03004,0.19167 -0.07568,0.1155 -0.08515,0.11731 -0.615433,0.11731 -0.507728,0 -0.541595,0.006 -0.591345,0.0986 -0.04575,0.0855 -0.03695,0.11123 0.06606,0.19337 l 0.118839,0.0948 v 0.7323 0.73229 l -0.124026,0.0482 c -0.07704,0.0299 -0.183827,0.0338 -0.281872,0.0102 -0.14632,-0.0353 -0.159498,-0.0529 -0.180401,-0.241 l -0.02255,-0.20295 -0.679428,-0.0124 c -0.645784,-0.0118 -0.687084,-0.007 -0.834036,0.0918 -0.08503,0.0573 -0.160179,0.13392 -0.166989,0.17025 -0.007,0.0372 0.07675,0.12214 0.191555,0.19436 0.112164,0.0705 0.304434,0.24104 0.427265,0.37885 0.122832,0.13782 0.278137,0.35525 0.345119,0.48319 0.08507,0.16249 0.113009,0.26758 0.09267,0.34862 -0.01601,0.0638 -0.06485,0.12457 -0.108534,0.13502 -0.04368,0.0104 -0.113911,0.0116 -0.156067,0.003 -0.04215,-0.009 -0.147529,-0.14323 -0.234165,-0.29815 -0.08664,-0.15492 -0.256977,-0.3747 -0.378536,-0.4884 -0.121561,-0.11371 -0.288428,-0.2416 -0.370816,-0.2842 l -0.149799,-0.0775 -0.169602,0.18368 c -0.09328,0.10102 -0.220605,0.19648 -0.282939,0.21212 -0.06233,0.0156 -0.329383,0.0215 -0.59344,0.013 l -0.480104,-0.0155 -0.172304,-0.20216 -0.172306,-0.20216 -0.253579,0.17465 c -0.139469,0.096 -0.32915,0.27098 -0.421516,0.38872 -0.09237,0.11773 -0.223248,0.3077 -0.290851,0.42213 -0.07389,0.12508 -0.154838,0.20752 -0.202949,0.2067 z"
       id="path78790-6"
       inkscape:connector-curvature="0" />
    <path
       style="fill:none;stroke:#000000;stroke-width:0.16500001;stroke-linecap:butt;stroke-linejoin:miter;stroke-miterlimit:4;stroke-dasharray:0.495, 0.165;stroke-dashoffset:0;stroke-opacity:1"
       d="m 46.119345,123.06984 0.0023,19.17548"
       id="path78812-4"
       inkscape:connector-curvature="0"
       sodipodi:nodetypes="cc" />
    <text
       xml:space="preserve"
       style="font-style:normal;font-weight:normal;font-size:5.64444447px;line-height:1.25;font-family:sans-serif;letter-spacing:0px;word-spacing:0px;fill:#000000;fill-opacity:1;stroke:none;stroke-width:0.26458332"
       x="45.405441"
       y="118.22939"
       id="text78816-36"><tspan
         sodipodi:role="line"
         x="45.405441"
         y="118.22939"
         style="font-style:normal;font-variant:normal;font-weight:normal;font-stretch:normal;font-size:3.52777767px;font-family:sans-serif;-inkscape-font-specification:'sans-serif, Normal';font-variant-ligatures:normal;font-variant-caps:normal;font-variant-numeric:normal;font-feature-settings:normal;text-align:start;writing-mode:lr-tb;text-anchor:start;stroke-width:0.26458332"
         id="tspan78818-1">$\hq^{(2)}_1$</tspan></text>
    <path
       style="fill:none;stroke:#000000;stroke-width:0.215;stroke-linecap:butt;stroke-linejoin:miter;stroke-miterlimit:4;stroke-dasharray:none;stroke-opacity:1;marker-start:;marker-end:url(#marker950)"
       d="m 105.14957,142.0574 c -33.553139,0.004 -44.817855,0.2123 -78.370992,0.22128 l -0.09572,-30.29242"
       id="path940"
       inkscape:connector-curvature="0"
       sodipodi:nodetypes="ccc" />
    <text
       xml:space="preserve"
       style="font-style:normal;font-weight:normal;font-size:3.17499995px;line-height:1.25;font-family:sans-serif;letter-spacing:0px;word-spacing:0px;fill:#000000;fill-opacity:1;stroke:none;stroke-width:0.26458332"
       x="63.610153"
       y="149.9511"
       id="text2512"><tspan
         sodipodi:role="line"
         id="tspan2510"
         x="63.610153"
         y="149.9511"
         style="font-size:3.17499995px;stroke-width:0.26458332">$x$</tspan></text>
    <text
       xml:space="preserve"
       style="font-style:normal;font-weight:normal;font-size:3.17499995px;line-height:1.25;font-family:sans-serif;letter-spacing:0px;word-spacing:0px;fill:#000000;fill-opacity:1;stroke:none;stroke-width:0.26458332"
       x="98.303474"
       y="145.85953"
       id="text2552-4"><tspan
         sodipodi:role="line"
         id="tspan2550-4"
         x="98.303474"
         y="145.85953"
         style="font-size:3.17499995px;stroke-width:0.26458332">$A=1$</tspan></text>
    <text
       xml:space="preserve"
       style="font-style:normal;font-weight:normal;font-size:3.17499995px;line-height:1.25;font-family:sans-serif;letter-spacing:0px;word-spacing:0px;fill:#000000;fill-opacity:1;stroke:none;stroke-width:0.26458332"
       x="25.172367"
       y="145.95403"
       id="text2552-0"><tspan
         sodipodi:role="line"
         id="tspan2550-8"
         x="25.172367"
         y="145.95403"
         style="font-size:3.17499995px;stroke-width:0.26458332">$0$</tspan></text>
    <path
       style="fill:none;stroke:#000000;stroke-width:0.26458332;stroke-linecap:butt;stroke-linejoin:miter;stroke-miterlimit:4;stroke-dasharray:0.26458332, 0.52916663;stroke-dashoffset:0;stroke-opacity:1"
       d="m 46.000584,123.53662 -18.375245,-0.0619"
       id="path2594"
       inkscape:connector-curvature="0"
       sodipodi:nodetypes="cc" />
    <path
       style="fill:none;stroke:#000000;stroke-width:0.26458332px;stroke-linecap:butt;stroke-linejoin:miter;stroke-opacity:1"
       d="M 65.947605,142.15877 C 59.298598,135.95139 46.111445,123.41644 46.189573,123.48938 L 26.778578,142.25364"
       id="path1048"
       inkscape:connector-curvature="0"
       sodipodi:nodetypes="ccc" />
    <text
       xml:space="preserve"
       style="font-style:normal;font-weight:normal;font-size:5.64444447px;line-height:1.25;font-family:sans-serif;letter-spacing:0px;word-spacing:0px;fill:#000000;fill-opacity:1;stroke:none;stroke-width:0.26458332"
       x="24.615698"
       y="130.407"
       id="text1072"><tspan
         sodipodi:role="line"
         id="tspan1070"
         x="24.615698"
         y="135.55659"
         style="stroke-width:0.26458332" /></text>
    <text
       xml:space="preserve"
       style="font-style:normal;font-weight:normal;font-size:3.17499995px;line-height:1.25;font-family:sans-serif;letter-spacing:0px;word-spacing:0px;fill:#000000;fill-opacity:1;stroke:none;stroke-width:0.26458332"
       x="22.003466"
       y="115.80468"
       id="text2512-5"><tspan
         sodipodi:role="line"
         id="tspan2510-3"
         x="22.003466"
         y="115.80468"
         style="font-size:3.17499995px;stroke-width:0.26458332">$h$</tspan></text>
    <text
       xml:space="preserve"
       style="font-style:normal;font-weight:normal;font-size:3.17499995px;line-height:1.25;font-family:sans-serif;letter-spacing:0px;word-spacing:0px;fill:#000000;fill-opacity:1;stroke:none;stroke-width:0.26458332"
       x="64.517639"
       y="145.95403"
       id="text2552-4-4"><tspan
         sodipodi:role="line"
         id="tspan2550-4-8"
         x="64.517639"
         y="145.95403"
         style="font-size:3.17499995px;stroke-width:0.26458332">$.5$</tspan></text>
    <path
       style="fill:none;stroke:#000000;stroke-width:0.26458332px;stroke-linecap:butt;stroke-linejoin:miter;stroke-opacity:1"
       d="m 65.957368,140.50244 10e-4,2.59858"
       id="path958-1"
       inkscape:connector-curvature="0"
       sodipodi:nodetypes="cc" />
    <text
       xml:space="preserve"
       style="font-style:normal;font-weight:normal;font-size:5.64444447px;line-height:1.25;font-family:sans-serif;letter-spacing:0px;word-spacing:0px;fill:#000000;fill-opacity:1;stroke:none;stroke-width:0.26458332"
       x="43.364479"
       y="109.57724"
       id="text983"><tspan
         sodipodi:role="line"
         id="tspan981"
         x="43.364479"
         y="114.72684"
         style="stroke-width:0.26458332" /></text>
    <text
       xml:space="preserve"
       style="font-style:normal;font-weight:normal;font-size:3.17499995px;line-height:1.25;font-family:sans-serif;letter-spacing:0px;word-spacing:0px;fill:#000000;fill-opacity:1;stroke:none;stroke-width:0.26458332"
       x="19.733086"
       y="124.5507"
       id="text2552-90"><tspan
         sodipodi:role="line"
         id="tspan2550-96"
         x="19.733086"
         y="124.5507"
         style="font-size:3.17499995px;stroke-width:0.26458332">$.144$</tspan></text>
    <path
       style="fill:none;stroke:#000000;stroke-width:0.26458332px;stroke-linecap:butt;stroke-linejoin:miter;stroke-opacity:1"
       d="m 25.026759,123.47576 2.59858,-10e-4"
       id="path958-1-3"
       inkscape:connector-curvature="0"
       sodipodi:nodetypes="cc" />
    <ellipse
       style="fill:#000000;stroke:#000000;stroke-width:0.26499996;stroke-miterlimit:4;stroke-dasharray:none;stroke-dashoffset:0"
       id="path78842-1-4-8"
       cx="-85.2062"
       cy="-142.12268"
       rx="0.322"
       ry="0.31434214"
       transform="scale(-1)" />
    <path
       style="fill:#000000;stroke-width:1"
       d="m 83.070376,124.26149 c -0.04402,-6.9e-4 -0.115551,-0.0221 -0.15896,-0.0473 -0.04456,-0.026 -0.07874,-0.099 -0.0785,-0.16776 2.38e-4,-0.067 0.05918,-0.22326 0.130997,-0.34728 0.07182,-0.12403 0.207515,-0.31455 0.301553,-0.42338 0.09404,-0.10884 0.279852,-0.26753 0.412919,-0.35265 0.133066,-0.0851 0.234078,-0.17873 0.224471,-0.20802 -0.0096,-0.0293 -0.08562,-0.0994 -0.168913,-0.15585 -0.143342,-0.0971 -0.187791,-0.10194 -0.830872,-0.0902 l -0.679427,0.0124 -0.02255,0.20295 -0.02255,0.20295 h -0.270599 -0.2706 l -0.01242,-0.73973 c -0.01165,-0.69342 -0.0067,-0.74505 0.07892,-0.82483 0.05024,-0.0468 0.09135,-0.10594 0.09135,-0.13141 0,-0.0255 -0.02101,-0.0856 -0.04669,-0.13354 -0.0421,-0.0787 -0.09886,-0.0872 -0.577279,-0.0872 -0.352548,0 -0.548751,-0.0182 -0.584712,-0.0541 -0.02977,-0.0298 -0.05412,-0.0983 -0.05412,-0.15233 0,-0.054 0.02663,-0.12031 0.05918,-0.14732 0.03322,-0.0276 0.295147,-0.0547 0.597053,-0.0619 l 0.537869,-0.0128 0.0606,-0.12662 c 0.03648,-0.0762 0.08975,-0.12101 0.133844,-0.11251 0.04028,0.008 0.08516,0.0647 0.09973,0.12661 l 0.02649,0.11252 0.558918,0.0127 c 0.317616,0.007 0.584493,0.034 0.61816,0.0619 0.03258,0.027 0.05924,0.0934 0.05924,0.14737 0,0.054 -0.02435,0.12256 -0.05412,0.15233 -0.03566,0.0357 -0.226684,0.0541 -0.56006,0.0541 -0.278267,0 -0.538043,0.0123 -0.577279,0.0274 -0.04102,0.0157 -0.07134,0.0799 -0.07134,0.15086 0,0.0679 0.03961,0.15933 0.08802,0.20314 0.06082,0.055 0.09218,0.15127 0.101476,0.31142 l 0.01346,0.23176 0.696098,0.0125 c 0.663632,0.0119 0.706824,0.007 0.92606,-0.10002 0.126481,-0.0619 0.34842,-0.20449 0.493202,-0.31691 l 0.263237,-0.20441 h 0.575123 0.575125 l 0.278161,0.22235 c 0.152989,0.1223 0.366026,0.26489 0.473415,0.31688 0.177164,0.0858 0.261601,0.0934 0.911459,0.0821 l 0.716207,-0.0124 0.02338,-0.26296 c 0.01647,-0.18525 0.04646,-0.27588 0.101474,-0.30667 0.04295,-0.024 0.07809,-0.0894 0.07809,-0.14519 0,-0.0558 -0.02435,-0.12584 -0.05412,-0.1556 -0.03587,-0.0359 -0.230513,-0.0541 -0.577281,-0.0541 -0.346767,0 -0.541406,-0.0182 -0.577279,-0.0541 -0.02976,-0.0298 -0.05412,-0.0983 -0.05412,-0.15233 0,-0.054 0.02666,-0.12033 0.05924,-0.14738 0.03367,-0.0279 0.300545,-0.0547 0.618161,-0.0619 l 0.55892,-0.0127 0.02649,-0.11251 c 0.01457,-0.0619 0.06162,-0.11928 0.104557,-0.12755 0.05317,-0.0102 0.09335,0.0288 0.125999,0.12247 l 0.04793,0.13751 0.566243,0.0126 c 0.467961,0.0104 0.57437,0.0255 0.613067,0.087 0.03459,0.0549 0.02673,0.10503 -0.03004,0.19167 -0.07568,0.1155 -0.08515,0.11731 -0.615433,0.11731 -0.507728,0 -0.541595,0.006 -0.591345,0.0986 -0.04575,0.0855 -0.03695,0.11123 0.06606,0.19337 l 0.118839,0.0948 v 0.7323 0.73229 l -0.124026,0.0482 c -0.07704,0.0299 -0.183827,0.0338 -0.281872,0.0102 -0.14632,-0.0353 -0.159498,-0.0529 -0.180401,-0.241 l -0.02255,-0.20295 -0.679428,-0.0124 c -0.645784,-0.0118 -0.687084,-0.007 -0.834036,0.0918 -0.08503,0.0573 -0.160179,0.13392 -0.166989,0.17025 -0.007,0.0372 0.07675,0.12214 0.191555,0.19436 0.112164,0.0705 0.304434,0.24104 0.427265,0.37885 0.122832,0.13782 0.278137,0.35525 0.345119,0.48319 0.08507,0.16249 0.113009,0.26758 0.09267,0.34862 -0.01601,0.0638 -0.06485,0.12457 -0.108534,0.13502 -0.04368,0.0104 -0.113912,0.0116 -0.156067,0.003 -0.04215,-0.009 -0.147529,-0.14323 -0.234165,-0.29815 -0.08664,-0.15492 -0.256977,-0.3747 -0.378536,-0.4884 -0.121561,-0.11371 -0.288428,-0.2416 -0.370816,-0.2842 l -0.149799,-0.0775 -0.169602,0.18368 c -0.09328,0.10102 -0.220606,0.19648 -0.28294,0.21212 -0.06233,0.0156 -0.329382,0.0215 -0.593439,0.013 l -0.480105,-0.0155 -0.172304,-0.20216 -0.172306,-0.20216 -0.25358,0.17465 c -0.139469,0.096 -0.329149,0.27098 -0.421515,0.38872 -0.09237,0.11773 -0.223248,0.3077 -0.290851,0.42213 -0.07389,0.12508 -0.154838,0.20752 -0.20295,0.2067 z"
       id="path78790-6-8"
       inkscape:connector-curvature="0" />
    <path
       style="fill:none;stroke:#000000;stroke-width:0.16500001;stroke-linecap:butt;stroke-linejoin:miter;stroke-miterlimit:4;stroke-dasharray:0.495, 0.165;stroke-dashoffset:0;stroke-opacity:1"
       d="m 85.205054,122.88776 0.0023,19.17548"
       id="path78812-4-0"
       inkscape:connector-curvature="0"
       sodipodi:nodetypes="cc" />
    <path
       style="fill:none;stroke:#000000;stroke-width:0.26458332;stroke-linecap:butt;stroke-linejoin:miter;stroke-miterlimit:4;stroke-dasharray:0.26458332, 0.52916663;stroke-dashoffset:0;stroke-opacity:1"
       d="m 85.177301,123.44175 -37.903639,-0.0619"
       id="path2594-1"
       inkscape:connector-curvature="0"
       sodipodi:nodetypes="cc" />
    <path
       style="fill:none;stroke:#000000;stroke-width:0.26458332px;stroke-linecap:butt;stroke-linejoin:miter;stroke-opacity:1"
       d="m 105.1264,140.40757 0.001,2.59858"
       id="path958-1-8"
       inkscape:connector-curvature="0"
       sodipodi:nodetypes="cc" />
    <text
       xml:space="preserve"
       style="font-style:normal;font-weight:normal;font-size:3.17499995px;line-height:1.25;font-family:sans-serif;letter-spacing:0px;word-spacing:0px;fill:#000000;fill-opacity:1;stroke:none;stroke-width:0.26458332"
       x="43.629414"
       y="145.85953"
       id="text2552-4-4-3"><tspan
         sodipodi:role="line"
         id="tspan2550-4-8-7"
         x="43.629414"
         y="145.85953"
         style="font-size:3.17499995px;stroke-width:0.26458332">$.25$</tspan></text>
    <text
       xml:space="preserve"
       style="font-style:normal;font-weight:normal;font-size:3.17499995px;line-height:1.25;font-family:sans-serif;letter-spacing:0px;word-spacing:0px;fill:#000000;fill-opacity:1;stroke:none;stroke-width:0.26458332"
       x="83.227448"
       y="145.95403"
       id="text2552-4-4-3-6"><tspan
         sodipodi:role="line"
         id="tspan2550-4-8-7-1"
         x="83.227448"
         y="145.95403"
         style="font-size:3.17499995px;stroke-width:0.26458332">$.75$</tspan></text>
    <path
       style="fill:none;stroke:#000000;stroke-width:0.26458332px;stroke-linecap:butt;stroke-linejoin:miter;stroke-opacity:1"
       d="m 26.778576,142.25364 9.814242,-9.50792 9.528827,9.4996"
       id="path4832"
       inkscape:connector-curvature="0"
       sodipodi:nodetypes="ccc" />
    <text
       xml:space="preserve"
       style="font-style:normal;font-weight:normal;font-size:3.17499995px;line-height:1.25;font-family:sans-serif;letter-spacing:0px;word-spacing:0px;fill:#000000;fill-opacity:1;stroke:none;stroke-width:0.26458332"
       x="19.675472"
       y="134.18362"
       id="text2552-90-7"><tspan
         sodipodi:role="line"
         id="tspan2550-96-9"
         x="19.675472"
         y="134.18362"
         style="font-size:3.17499995px;stroke-width:0.26458332">$.072$</tspan></text>
    <path
       style="fill:none;stroke:#000000;stroke-width:0.26458332px;stroke-linecap:butt;stroke-linejoin:miter;stroke-opacity:1"
       d="m 46.121645,142.24532 9.814242,-9.50792 10.011718,9.42137"
       id="path4832-5"
       inkscape:connector-curvature="0"
       sodipodi:nodetypes="ccc" />
    <path
       style="fill:none;stroke:#000000;stroke-width:0.26458332px;stroke-linecap:butt;stroke-linejoin:miter;stroke-opacity:1"
       d="M 105.14957,142.0574 C 98.500563,135.85002 85.313409,123.31507 85.391537,123.38801 l -19.410995,18.76426"
       id="path1048-4"
       inkscape:connector-curvature="0"
       sodipodi:nodetypes="ccc" />
    <path
       style="fill:none;stroke:#000000;stroke-width:0.26458332px;stroke-linecap:butt;stroke-linejoin:miter;stroke-opacity:1"
       d="m 65.98054,142.15227 9.814242,-9.50792 9.528827,9.4996"
       id="path4832-6"
       inkscape:connector-curvature="0"
       sodipodi:nodetypes="ccc" />
    <path
       style="fill:none;stroke:#000000;stroke-width:0.26458332px;stroke-linecap:butt;stroke-linejoin:miter;stroke-opacity:1"
       d="m 85.323609,142.14395 9.814243,-9.50792 10.011718,9.42137"
       id="path4832-5-2"
       inkscape:connector-curvature="0"
       sodipodi:nodetypes="ccc" />
    <path
       style="fill:#000000;stroke-width:1"
       d="m 35.044743,133.42663 c -0.03192,-5e-4 -0.08378,-0.0163 -0.115261,-0.0349 -0.03231,-0.0192 -0.05709,-0.073 -0.05692,-0.12374 1.73e-4,-0.0494 0.04291,-0.16468 0.09499,-0.25616 0.05208,-0.0915 0.150468,-0.23202 0.218654,-0.31229 0.06819,-0.0803 0.202919,-0.19734 0.299406,-0.26013 0.09649,-0.0628 0.169728,-0.13183 0.162762,-0.15344 -0.007,-0.0216 -0.06208,-0.0733 -0.122478,-0.11495 -0.103936,-0.0716 -0.136166,-0.0752 -0.602461,-0.0665 l -0.492649,0.009 -0.01635,0.1497 -0.01635,0.1497 h -0.19621 -0.196211 l -0.009,-0.54564 c -0.0084,-0.51148 -0.0049,-0.54957 0.05723,-0.60841 0.03643,-0.0345 0.06624,-0.0781 0.06624,-0.0969 0,-0.0188 -0.01523,-0.0631 -0.03385,-0.0985 -0.03053,-0.058 -0.07168,-0.0643 -0.418583,-0.0643 -0.255631,0 -0.397897,-0.0134 -0.423971,-0.0399 -0.02159,-0.022 -0.03924,-0.0725 -0.03924,-0.11236 0,-0.0398 0.01931,-0.0888 0.04291,-0.10867 0.02409,-0.0204 0.214009,-0.0404 0.43292,-0.0457 l 0.390006,-0.009 0.04394,-0.0934 c 0.02645,-0.0562 0.06508,-0.0893 0.09705,-0.083 0.02921,0.006 0.06175,0.0477 0.07231,0.0934 l 0.01921,0.083 0.405268,0.009 c 0.230302,0.005 0.423814,0.0251 0.448225,0.0457 0.02362,0.0199 0.04295,0.0689 0.04295,0.1087 0,0.0398 -0.01766,0.0904 -0.03924,0.11236 -0.02586,0.0263 -0.164367,0.0399 -0.406096,0.0399 -0.20177,0 -0.390132,0.009 -0.418582,0.0202 -0.02974,0.0116 -0.05173,0.0589 -0.05173,0.11128 0,0.0501 0.02872,0.11752 0.06382,0.14984 0.0441,0.0406 0.06684,0.11158 0.07358,0.22971 l 0.0098,0.17095 0.504737,0.009 c 0.481196,0.009 0.512515,0.005 0.671482,-0.0738 0.09171,-0.0457 0.252637,-0.15084 0.357618,-0.23376 l 0.190872,-0.15078 h 0.417018 0.417021 l 0.201693,0.16401 c 0.110931,0.0902 0.265403,0.19539 0.34327,0.23374 0.128461,0.0633 0.189686,0.0689 0.660895,0.0606 l 0.519318,-0.009 0.01695,-0.19396 c 0.01194,-0.13665 0.03369,-0.2035 0.07358,-0.22621 0.03114,-0.0177 0.05662,-0.0659 0.05662,-0.10709 0,-0.0412 -0.01766,-0.0928 -0.03924,-0.11478 -0.02601,-0.0265 -0.167144,-0.0399 -0.418583,-0.0399 -0.251439,0 -0.39257,-0.0134 -0.418582,-0.0399 -0.02158,-0.022 -0.03924,-0.0725 -0.03924,-0.11236 0,-0.0398 0.01933,-0.0888 0.04295,-0.10871 0.02441,-0.0206 0.217924,-0.0403 0.448226,-0.0457 l 0.40527,-0.009 0.01921,-0.083 c 0.01056,-0.0456 0.04468,-0.088 0.07581,-0.0941 0.03855,-0.008 0.06769,0.0212 0.09136,0.0903 l 0.03475,0.10143 0.41058,0.009 c 0.339316,0.008 0.416473,0.0188 0.444532,0.0642 0.02508,0.0405 0.01938,0.0775 -0.02178,0.14138 -0.05487,0.0852 -0.06174,0.0865 -0.446247,0.0865 -0.368151,0 -0.392708,0.004 -0.428782,0.0727 -0.03317,0.0631 -0.02679,0.0821 0.0479,0.14264 l 0.08617,0.0699 v 0.54016 0.54016 l -0.08993,0.0356 c -0.05586,0.022 -0.133292,0.0249 -0.204384,0.008 -0.106096,-0.026 -0.115651,-0.039 -0.130807,-0.17776 l -0.01635,-0.1497 -0.49265,-0.009 c -0.468255,-0.009 -0.498201,-0.005 -0.604755,0.0677 -0.06166,0.0423 -0.116145,0.0988 -0.121083,0.12558 -0.0051,0.0274 0.05565,0.0901 0.138895,0.14337 0.08133,0.052 0.220744,0.17779 0.309808,0.27945 0.08906,0.10165 0.201676,0.26203 0.250244,0.35641 0.06168,0.11985 0.08194,0.19737 0.0672,0.25715 -0.01161,0.0471 -0.04702,0.0919 -0.0787,0.0996 -0.03167,0.008 -0.0826,0.009 -0.113164,0.002 -0.03056,-0.007 -0.106972,-0.10565 -0.169792,-0.21992 -0.06282,-0.11427 -0.186332,-0.27639 -0.274474,-0.36025 -0.08814,-0.0839 -0.209137,-0.17821 -0.268876,-0.20964 l -0.108619,-0.0572 -0.122977,0.13548 c -0.06764,0.0745 -0.15996,0.14493 -0.205158,0.15647 -0.04519,0.0115 -0.238834,0.0159 -0.4303,0.01 l -0.348121,-0.0114 -0.124937,-0.14912 -0.124938,-0.14912 -0.183869,0.12883 c -0.101128,0.0708 -0.238665,0.19988 -0.305639,0.28672 -0.06698,0.0868 -0.161876,0.22697 -0.210895,0.31138 -0.05358,0.0923 -0.112272,0.15307 -0.147157,0.15246 z"
       id="path78790-6-84"
       inkscape:connector-curvature="0" />
    <path
       style="fill:#000000;stroke-width:1"
       d="m 54.274247,133.42664 c -0.03192,-5e-4 -0.08378,-0.0163 -0.115261,-0.0349 -0.03231,-0.0192 -0.05709,-0.073 -0.05692,-0.12374 1.73e-4,-0.0494 0.04291,-0.16468 0.09499,-0.25616 0.05208,-0.0915 0.150468,-0.23202 0.218654,-0.31229 0.06819,-0.0803 0.202919,-0.19734 0.299406,-0.26013 0.09649,-0.0628 0.169728,-0.13183 0.162762,-0.15344 -0.007,-0.0216 -0.06208,-0.0733 -0.122478,-0.11495 -0.103936,-0.0716 -0.136166,-0.0752 -0.602461,-0.0665 l -0.492649,0.009 -0.01635,0.1497 -0.01635,0.1497 h -0.19621 -0.196211 l -0.009,-0.54564 c -0.0084,-0.51148 -0.0049,-0.54957 0.05723,-0.60841 0.03643,-0.0345 0.06624,-0.0781 0.06624,-0.0969 0,-0.0188 -0.01523,-0.0631 -0.03385,-0.0985 -0.03053,-0.058 -0.07168,-0.0643 -0.418583,-0.0643 -0.255631,0 -0.397897,-0.0134 -0.423971,-0.0399 -0.02159,-0.022 -0.03924,-0.0725 -0.03924,-0.11236 0,-0.0398 0.01931,-0.0888 0.04291,-0.10867 0.02409,-0.0204 0.214009,-0.0404 0.43292,-0.0457 l 0.390006,-0.009 0.04394,-0.0934 c 0.02645,-0.0562 0.06508,-0.0893 0.09705,-0.083 0.02921,0.006 0.06175,0.0477 0.07231,0.0934 l 0.01921,0.083 0.405268,0.009 c 0.230302,0.005 0.423814,0.0251 0.448225,0.0457 0.02362,0.0199 0.04295,0.0689 0.04295,0.1087 0,0.0398 -0.01766,0.0904 -0.03924,0.11236 -0.02586,0.0263 -0.164367,0.0399 -0.406096,0.0399 -0.20177,0 -0.390132,0.009 -0.418582,0.0202 -0.02974,0.0116 -0.05173,0.0589 -0.05173,0.11128 0,0.0501 0.02872,0.11752 0.06382,0.14984 0.0441,0.0406 0.06684,0.11158 0.07358,0.22971 l 0.0098,0.17095 0.504737,0.009 c 0.481196,0.009 0.512515,0.005 0.671482,-0.0738 0.09171,-0.0457 0.252637,-0.15084 0.357618,-0.23376 l 0.190872,-0.15078 h 0.417018 0.417021 l 0.201693,0.16401 c 0.110931,0.0902 0.265403,0.19539 0.34327,0.23374 0.128461,0.0633 0.189686,0.0689 0.660895,0.0606 l 0.519318,-0.009 0.01695,-0.19396 c 0.01194,-0.13665 0.03369,-0.2035 0.07358,-0.22621 0.03114,-0.0177 0.05662,-0.0659 0.05662,-0.10709 0,-0.0412 -0.01766,-0.0928 -0.03924,-0.11478 -0.02601,-0.0265 -0.167144,-0.0399 -0.418583,-0.0399 -0.251439,0 -0.39257,-0.0134 -0.418582,-0.0399 -0.02158,-0.022 -0.03924,-0.0725 -0.03924,-0.11236 0,-0.0398 0.01933,-0.0888 0.04295,-0.10871 0.02441,-0.0206 0.217924,-0.0403 0.448226,-0.0457 l 0.40527,-0.009 0.01921,-0.083 c 0.01056,-0.0456 0.04468,-0.088 0.07581,-0.0941 0.03855,-0.008 0.06769,0.0212 0.09136,0.0903 l 0.03475,0.10143 0.41058,0.009 c 0.339316,0.008 0.416473,0.0188 0.444532,0.0642 0.02508,0.0405 0.01938,0.0775 -0.02178,0.14138 -0.05487,0.0852 -0.06174,0.0865 -0.446247,0.0865 -0.368151,0 -0.392708,0.004 -0.428782,0.0727 -0.03317,0.0631 -0.02679,0.0821 0.0479,0.14264 l 0.08617,0.0699 v 0.54016 0.54016 l -0.08993,0.0356 c -0.05586,0.022 -0.133292,0.0249 -0.204384,0.008 -0.106093,-0.026 -0.115648,-0.039 -0.130804,-0.17776 l -0.01635,-0.1497 -0.49265,-0.009 c -0.468255,-0.009 -0.498201,-0.005 -0.604755,0.0677 -0.06166,0.0423 -0.116145,0.0988 -0.121083,0.12558 -0.0051,0.0274 0.05565,0.0901 0.138895,0.14337 0.08133,0.052 0.220744,0.17779 0.309808,0.27945 0.08906,0.10165 0.201676,0.26203 0.250244,0.35641 0.06168,0.11985 0.08194,0.19737 0.0672,0.25715 -0.01161,0.0471 -0.04702,0.0919 -0.0787,0.0996 -0.03167,0.008 -0.0826,0.009 -0.113164,0.002 -0.03056,-0.007 -0.106971,-0.10566 -0.169791,-0.21993 -0.06282,-0.11427 -0.186332,-0.27639 -0.274474,-0.36025 -0.08814,-0.0839 -0.209137,-0.17821 -0.268876,-0.20964 l -0.108619,-0.0572 -0.122977,0.13548 c -0.06764,0.0745 -0.15996,0.14493 -0.205158,0.15647 -0.04519,0.0115 -0.238834,0.0159 -0.4303,0.01 l -0.348121,-0.0114 -0.124937,-0.14912 -0.124938,-0.14912 -0.183869,0.12883 c -0.101128,0.0708 -0.238665,0.19988 -0.305639,0.28672 -0.06698,0.0868 -0.161876,0.22697 -0.210895,0.31138 -0.05358,0.0923 -0.112272,0.15307 -0.147157,0.15246 z"
       id="path78790-6-84-2"
       inkscape:connector-curvature="0" />
    <path
       style="fill:#000000;stroke-width:1"
       d="m 74.073643,133.42664 c -0.03192,-5e-4 -0.08378,-0.0163 -0.115261,-0.0349 -0.03231,-0.0192 -0.05709,-0.073 -0.05692,-0.12374 1.73e-4,-0.0494 0.04291,-0.16468 0.09499,-0.25616 0.05208,-0.0915 0.150468,-0.23202 0.218654,-0.31229 0.06819,-0.0803 0.202919,-0.19734 0.299406,-0.26013 0.09649,-0.0628 0.169728,-0.13183 0.162762,-0.15344 -0.007,-0.0216 -0.06208,-0.0733 -0.122478,-0.11495 -0.103936,-0.0716 -0.136166,-0.0752 -0.602461,-0.0665 l -0.492649,0.009 -0.01635,0.1497 -0.01635,0.1497 h -0.19621 -0.196211 l -0.009,-0.54564 c -0.0084,-0.51148 -0.0049,-0.54957 0.05723,-0.60841 0.03643,-0.0345 0.06624,-0.0781 0.06624,-0.0969 0,-0.0188 -0.01523,-0.0631 -0.03385,-0.0985 -0.03053,-0.058 -0.07168,-0.0643 -0.418583,-0.0643 -0.255631,0 -0.397897,-0.0134 -0.423971,-0.0399 -0.02159,-0.022 -0.03924,-0.0725 -0.03924,-0.11236 0,-0.0398 0.01931,-0.0888 0.04291,-0.10867 0.02409,-0.0204 0.214009,-0.0404 0.43292,-0.0457 l 0.390006,-0.009 0.04394,-0.0934 c 0.02645,-0.0562 0.06508,-0.0893 0.09705,-0.083 0.02921,0.006 0.06175,0.0477 0.07231,0.0934 l 0.01921,0.083 0.405268,0.009 c 0.230302,0.005 0.423814,0.0251 0.448225,0.0457 0.02362,0.0199 0.04295,0.0689 0.04295,0.1087 0,0.0398 -0.01766,0.0904 -0.03924,0.11236 -0.02586,0.0263 -0.164367,0.0399 -0.406096,0.0399 -0.20177,0 -0.390132,0.009 -0.418582,0.0202 -0.02974,0.0116 -0.05173,0.0589 -0.05173,0.11128 0,0.0501 0.02872,0.11752 0.06382,0.14984 0.0441,0.0406 0.06684,0.11158 0.07358,0.22971 l 0.0098,0.17095 0.504737,0.009 c 0.481196,0.009 0.512515,0.005 0.671482,-0.0738 0.09171,-0.0457 0.252637,-0.15084 0.357618,-0.23376 l 0.190872,-0.15078 h 0.417018 0.417021 l 0.201693,0.16401 c 0.110931,0.0902 0.265403,0.19539 0.34327,0.23374 0.128461,0.0633 0.189686,0.0689 0.660895,0.0606 l 0.519318,-0.009 0.01695,-0.19396 c 0.01194,-0.13665 0.03369,-0.2035 0.07358,-0.22621 0.03114,-0.0177 0.05662,-0.0659 0.05662,-0.10709 0,-0.0412 -0.01766,-0.0928 -0.03924,-0.11478 -0.02601,-0.0265 -0.167144,-0.0399 -0.418583,-0.0399 -0.251439,0 -0.39257,-0.0134 -0.418582,-0.0399 -0.02158,-0.022 -0.03924,-0.0725 -0.03924,-0.11236 0,-0.0398 0.01933,-0.0888 0.04295,-0.10871 0.02441,-0.0206 0.217924,-0.0403 0.448226,-0.0457 l 0.40527,-0.009 0.01921,-0.083 c 0.01056,-0.0456 0.04468,-0.088 0.07581,-0.0941 0.03855,-0.008 0.06769,0.0212 0.09136,0.0903 l 0.03475,0.10143 0.41058,0.009 c 0.339316,0.008 0.416473,0.0188 0.444532,0.0642 0.02508,0.0405 0.01938,0.0775 -0.02178,0.14138 -0.05487,0.0852 -0.06174,0.0865 -0.446247,0.0865 -0.368151,0 -0.392708,0.004 -0.428782,0.0727 -0.03317,0.0631 -0.02679,0.0821 0.0479,0.14264 l 0.08617,0.0699 v 0.54016 0.54016 l -0.08993,0.0356 c -0.05586,0.022 -0.133292,0.0249 -0.204384,0.008 -0.106093,-0.026 -0.115648,-0.039 -0.130804,-0.17776 l -0.01635,-0.1497 -0.49265,-0.009 c -0.468255,-0.009 -0.498201,-0.005 -0.604755,0.0677 -0.06166,0.0423 -0.116145,0.0988 -0.121083,0.12558 -0.0051,0.0274 0.05565,0.0901 0.138895,0.14337 0.08133,0.052 0.220744,0.17779 0.309808,0.27945 0.08906,0.10165 0.201676,0.26203 0.250244,0.35641 0.06168,0.11985 0.08194,0.19737 0.0672,0.25715 -0.01161,0.0471 -0.04702,0.0919 -0.0787,0.0996 -0.03167,0.008 -0.0826,0.009 -0.113164,0.002 -0.03056,-0.007 -0.106971,-0.10566 -0.169791,-0.21993 -0.06282,-0.11427 -0.186332,-0.27639 -0.274474,-0.36025 -0.08814,-0.0839 -0.209137,-0.17821 -0.268876,-0.20964 l -0.108619,-0.0572 -0.122977,0.13548 c -0.06764,0.0745 -0.15996,0.14493 -0.205158,0.15647 -0.04519,0.0115 -0.238834,0.0159 -0.4303,0.01 l -0.348121,-0.0114 -0.124937,-0.14912 -0.124938,-0.14912 -0.183869,0.12883 c -0.101128,0.0708 -0.238665,0.19988 -0.305639,0.28672 -0.06698,0.0868 -0.161876,0.22697 -0.210895,0.31138 -0.05358,0.0923 -0.112272,0.15307 -0.147157,0.15246 z"
       id="path78790-6-84-3"
       inkscape:connector-curvature="0" />
    <path
       style="fill:#000000;stroke-width:1"
       d="m 93.536524,133.42664 c -0.03192,-5e-4 -0.08378,-0.0163 -0.115261,-0.0349 -0.03231,-0.0192 -0.05709,-0.073 -0.05692,-0.12374 1.73e-4,-0.0494 0.04291,-0.16468 0.09499,-0.25616 0.05208,-0.0915 0.150468,-0.23202 0.218654,-0.31229 0.06819,-0.0803 0.202919,-0.19734 0.299406,-0.26013 0.09649,-0.0628 0.169728,-0.13183 0.162762,-0.15344 -0.007,-0.0216 -0.06208,-0.0733 -0.122478,-0.11495 -0.103936,-0.0716 -0.136166,-0.0752 -0.602461,-0.0665 l -0.492649,0.009 -0.01635,0.1497 -0.01635,0.1497 h -0.19621 -0.196211 l -0.009,-0.54564 c -0.0084,-0.51148 -0.0049,-0.54957 0.05723,-0.60841 0.03643,-0.0345 0.06624,-0.0781 0.06624,-0.0969 0,-0.0188 -0.01523,-0.0631 -0.03385,-0.0985 -0.03053,-0.058 -0.07168,-0.0643 -0.418583,-0.0643 -0.255631,0 -0.397897,-0.0134 -0.423971,-0.0399 -0.02159,-0.022 -0.03924,-0.0725 -0.03924,-0.11236 0,-0.0398 0.01931,-0.0888 0.04291,-0.10867 0.02409,-0.0204 0.214009,-0.0404 0.43292,-0.0457 l 0.390006,-0.009 0.04394,-0.0934 c 0.02645,-0.0562 0.06508,-0.0893 0.09705,-0.083 0.02921,0.006 0.06175,0.0477 0.07231,0.0934 l 0.01921,0.083 0.405268,0.009 c 0.230302,0.005 0.423814,0.0251 0.448225,0.0457 0.02362,0.0199 0.04295,0.0689 0.04295,0.1087 0,0.0398 -0.01766,0.0904 -0.03924,0.11236 -0.02586,0.0263 -0.164367,0.0399 -0.406096,0.0399 -0.20177,0 -0.390132,0.009 -0.418582,0.0202 -0.02974,0.0116 -0.05173,0.0589 -0.05173,0.11128 0,0.0501 0.02872,0.11752 0.06382,0.14984 0.0441,0.0406 0.06684,0.11158 0.07358,0.22971 l 0.0098,0.17095 0.504737,0.009 c 0.481196,0.009 0.512515,0.005 0.671482,-0.0738 0.09171,-0.0457 0.252637,-0.15084 0.357618,-0.23376 l 0.190872,-0.15078 h 0.417018 0.417021 l 0.201693,0.16401 c 0.110931,0.0902 0.265403,0.19539 0.34327,0.23374 0.128461,0.0633 0.189686,0.0689 0.660895,0.0606 l 0.519318,-0.009 0.01695,-0.19396 c 0.01194,-0.13665 0.03369,-0.2035 0.07358,-0.22621 0.03114,-0.0177 0.05662,-0.0659 0.05662,-0.10709 0,-0.0412 -0.01766,-0.0928 -0.03924,-0.11478 -0.02601,-0.0265 -0.167144,-0.0399 -0.418583,-0.0399 -0.251439,0 -0.39257,-0.0134 -0.418582,-0.0399 -0.02158,-0.022 -0.03924,-0.0725 -0.03924,-0.11236 0,-0.0398 0.01933,-0.0888 0.04295,-0.10871 0.02441,-0.0206 0.217924,-0.0403 0.448226,-0.0457 l 0.40527,-0.009 0.01921,-0.083 c 0.01056,-0.0456 0.04468,-0.088 0.07581,-0.0941 0.03855,-0.008 0.06769,0.0212 0.09136,0.0903 l 0.03475,0.10143 0.41058,0.009 c 0.339316,0.008 0.416473,0.0188 0.444532,0.0642 0.02508,0.0405 0.01938,0.0775 -0.02178,0.14138 -0.05487,0.0852 -0.06174,0.0865 -0.446247,0.0865 -0.368151,0 -0.392708,0.004 -0.428782,0.0727 -0.03317,0.0631 -0.02679,0.0821 0.0479,0.14264 l 0.08617,0.0699 v 0.54016 0.54016 l -0.08993,0.0356 c -0.05586,0.022 -0.133292,0.0249 -0.204384,0.008 -0.106093,-0.026 -0.115648,-0.039 -0.130804,-0.17776 l -0.01635,-0.1497 -0.49265,-0.009 c -0.468255,-0.009 -0.498201,-0.005 -0.604755,0.0677 -0.06166,0.0423 -0.116145,0.0988 -0.121083,0.12558 -0.0051,0.0274 0.05565,0.0901 0.138895,0.14337 0.08133,0.052 0.220744,0.17779 0.309808,0.27945 0.08906,0.10165 0.201676,0.26203 0.250244,0.35641 0.06168,0.11985 0.08194,0.19737 0.0672,0.25715 -0.01161,0.0471 -0.04702,0.0919 -0.0787,0.0996 -0.03167,0.008 -0.0826,0.009 -0.113164,0.002 -0.03056,-0.007 -0.106971,-0.10566 -0.169791,-0.21993 -0.06282,-0.11427 -0.186332,-0.27639 -0.274474,-0.36025 -0.08814,-0.0839 -0.209137,-0.17821 -0.268876,-0.20964 l -0.108619,-0.0572 -0.122977,0.13548 c -0.06764,0.0745 -0.15996,0.14493 -0.205158,0.15647 -0.04519,0.0115 -0.238834,0.0159 -0.4303,0.01 l -0.348121,-0.0114 -0.124937,-0.14912 -0.124938,-0.14912 -0.183869,0.12883 c -0.101128,0.0708 -0.238665,0.19988 -0.305639,0.28672 -0.06698,0.0868 -0.161876,0.22697 -0.210895,0.31138 -0.05358,0.0923 -0.112272,0.15307 -0.147157,0.15246 z"
       id="path78790-6-84-0"
       inkscape:connector-curvature="0" />
    <path
       style="fill:none;stroke:#000000;stroke-width:0.16500001;stroke-linecap:butt;stroke-linejoin:miter;stroke-miterlimit:4;stroke-dasharray:0.165, 0.495;stroke-dashoffset:0;stroke-opacity:1"
       d="m 26.836309,133.10007 68.348788,-0.20418"
       id="path4984"
       inkscape:connector-curvature="0"
       sodipodi:nodetypes="cc" />
    <text
       xml:space="preserve"
       style="font-style:normal;font-weight:normal;font-size:5.64444447px;line-height:1.25;font-family:sans-serif;letter-spacing:0px;word-spacing:0px;fill:#000000;fill-opacity:1;stroke:none;stroke-width:0.26458332"
       x="43.641361"
       y="128.16975"
       id="text78880"><tspan
         sodipodi:role="line"
         id="tspan78878"
         x="43.641361"
         y="128.16975"
         style="font-style:normal;font-variant:normal;font-weight:normal;font-stretch:normal;font-size:3.52777767px;font-family:sans-serif;-inkscape-font-specification:'sans-serif, Normal';font-variant-ligatures:normal;font-variant-caps:normal;font-variant-numeric:normal;font-feature-settings:normal;text-align:start;writing-mode:lr-tb;text-anchor:start;stroke-width:0.26458332">$\tht_{\text{max}}$</tspan></text>
    <path
       style="fill:none;stroke:#000000;stroke-width:0.26499999;stroke-miterlimit:4;stroke-dasharray:none;stroke-dashoffset:0"
       id="path78874"
       sodipodi:type="arc"
       sodipodi:cx="45.903809"
       sodipodi:cy="122.16688"
       sodipodi:rx="6.0130658"
       sodipodi:ry="7.1955547"
       sodipodi:start="1.5441683"
       sodipodi:end="2.2767401"
       d="m 46.063906,129.35988 a 6.0130658,7.1955547 0 0 1 -4.061088,-1.71719"
       sodipodi:open="true" />
    <path
       style="opacity:1;fill:#cccccc;fill-opacity:1;stroke:none;stroke-width:0.16500001;stroke-miterlimit:4;stroke-dasharray:0.165, 0.49499999;stroke-dashoffset:0"
       id="path5959"
       sodipodi:type="arc"
       sodipodi:cx="42.534103"
       sodipodi:cy="128.00673"
       sodipodi:rx="0.12989849"
       sodipodi:ry="0.22194803"
       sodipodi:start="1.5441678"
       sodipodi:end="2.1398086"
       sodipodi:open="true"
       d="m 42.537562,128.2286 a 0.12989849,0.22194803 0 0 1 -0.07345,-0.0349" />
    <path
       style="fill:none;stroke:#000000;stroke-width:0.26458332px;stroke-linecap:butt;stroke-linejoin:miter;stroke-opacity:1"
       d="m 25.395278,133.14783 2.59858,-0.001"
       id="path958-1-3-4"
       inkscape:connector-curvature="0"
       sodipodi:nodetypes="cc" />
    <text
       xml:space="preserve"
       style="font-style:normal;font-weight:normal;font-size:5.64444447px;line-height:1.25;font-family:sans-serif;letter-spacing:0px;word-spacing:0px;fill:#000000;fill-opacity:1;stroke:none;stroke-width:0.26458332"
       x="34.408508"
       y="129.34677"
       id="text78816-36-3"><tspan
         sodipodi:role="line"
         x="34.408508"
         y="129.34677"
         style="font-style:normal;font-variant:normal;font-weight:normal;font-stretch:normal;font-size:2.11666656px;font-family:sans-serif;-inkscape-font-specification:'sans-serif, Normal';font-variant-ligatures:normal;font-variant-caps:normal;font-variant-numeric:normal;font-feature-settings:normal;text-align:start;writing-mode:lr-tb;text-anchor:start;stroke-width:0.26458332"
         id="tspan78818-1-6">$\hq^{(4)}_1$</tspan></text>
  </g>
  <g
     inkscape:groupmode="layer"
     id="layer4"
     inkscape:label="phone"
     style="opacity:1" />
</svg>
